<svg width="1920" height="510" viewBox="0 0 1920 510" fill="none" xmlns="http://www.w3.org/2000/svg">
<g filter="url(#filter0_d_1_969)">
<path d="M606.408 167.694L606.685 168.64C607.119 170.118 608.52 171.099 610.058 171.002L611.041 170.939L610.095 171.217C608.617 171.651 607.636 173.051 607.734 174.589L607.796 175.573L607.518 174.627C607.084 173.149 605.684 172.168 604.146 172.265L603.162 172.328L604.108 172.05C605.587 171.616 606.567 170.216 606.47 168.678L606.408 167.694Z" fill="white" fill-opacity="0.9"/>
<path d="M1288.14 93.0003L1288 94.3804C1287.79 96.5384 1289.11 98.5542 1291.17 99.2349L1292.48 99.6703L1291.1 99.5358C1288.94 99.3257 1286.93 100.638 1286.25 102.697L1285.81 104.013L1285.95 102.633C1286.16 100.475 1284.84 98.4595 1282.79 97.7787L1281.47 97.3434L1282.85 97.4778C1285.01 97.688 1287.02 96.3754 1287.7 94.3168L1288.14 93.0003Z" fill="white" fill-opacity="0.9"/>
<path d="M340.56 35.1586L341.734 34.8481C343.57 34.3625 344.825 32.6698 344.757 30.7717L344.713 29.5578L345.023 30.7321C345.509 32.5684 347.201 33.8235 349.099 33.7546L350.313 33.7106L349.139 34.0211C347.303 34.5067 346.048 36.1994 346.117 38.0975L346.161 39.3114L345.85 38.1371C345.365 36.3008 343.672 35.0457 341.774 35.1146L340.56 35.1586Z" fill="white" fill-opacity="0.9"/>
<path d="M167.674 211.055L167.958 211.928C168.4 213.294 169.73 214.172 171.16 214.041L172.075 213.958L171.201 214.241C169.835 214.683 168.958 216.013 169.088 217.443L169.172 218.358L168.889 217.484C168.446 216.118 167.116 215.241 165.686 215.371L164.772 215.455L165.645 215.172C167.011 214.729 167.889 213.399 167.758 211.969L167.674 211.055Z" fill="white" fill-opacity="0.9"/>
<path d="M4.6947 124.219L5.29271 125.317C6.22782 127.032 8.22647 127.871 10.1059 127.337L11.3079 126.996L10.2108 127.594C8.49523 128.529 7.65619 130.527 8.19014 132.407L8.53161 133.609L7.9336 132.512C6.99849 130.796 4.99985 129.957 3.12039 130.491L1.91846 130.833L3.01556 130.235C4.73109 129.3 5.57013 127.301 5.03617 125.421L4.6947 124.219Z" fill="white" fill-opacity="0.9"/>
<path d="M375.844 380.317L376.066 382.311C376.414 385.43 378.876 387.891 381.994 388.239L383.989 388.462L381.994 388.684C378.876 389.032 376.414 391.494 376.066 394.612L375.844 396.606L375.621 394.612C375.273 391.494 372.812 389.032 369.693 388.684L367.699 388.462L369.693 388.239C372.812 387.891 375.273 385.43 375.621 382.311L375.844 380.317Z" fill="white" fill-opacity="0.9"/>
<path d="M762.468 169L762.523 169.49C762.608 170.256 763.213 170.86 763.979 170.946L764.468 171L763.979 171.055C763.213 171.14 762.608 171.745 762.523 172.511L762.468 173L762.414 172.511C762.328 171.745 761.724 171.14 760.958 171.055L760.468 171L760.958 170.946C761.724 170.86 762.328 170.256 762.414 169.49L762.468 169Z" fill="white" fill-opacity="0.9"/>
<path d="M942.968 101L943.091 102.225C943.284 104.139 944.644 105.65 946.367 105.864L947.468 106L946.367 106.137C944.644 106.35 943.284 107.862 943.091 109.776L942.968 111L942.845 109.776C942.653 107.862 941.293 106.35 939.57 106.137L938.468 106L939.57 105.864C941.293 105.65 942.653 104.139 942.845 102.225L942.968 101Z" fill="white" fill-opacity="0.9"/>
<path d="M1513.94 345.566L1514.17 347.56C1514.51 350.679 1516.98 353.14 1520.09 353.488L1522.09 353.711L1520.09 353.933C1516.98 354.281 1514.51 356.743 1514.17 359.861L1513.94 361.856L1513.72 359.861C1513.37 356.743 1510.91 354.281 1507.79 353.933L1505.8 353.711L1507.79 353.488C1510.91 353.14 1513.37 350.679 1513.72 347.56L1513.94 345.566Z" fill="white" fill-opacity="0.9"/>
<path d="M1711.7 124.682L1711.52 125.751C1711.24 127.422 1712.16 129.062 1713.73 129.699L1714.74 130.107L1713.67 129.931C1712 129.655 1710.36 130.573 1709.72 132.142L1709.31 133.146L1709.49 132.077C1709.76 130.406 1708.85 128.766 1707.28 128.129L1706.27 127.721L1707.34 127.898C1709.01 128.174 1710.65 127.255 1711.29 125.686L1711.7 124.682Z" fill="white" fill-opacity="0.9"/>
<path d="M1829.92 308.876L1829.76 309.778C1829.52 311.189 1830.28 312.584 1831.6 313.137L1832.44 313.491L1831.54 313.332C1830.13 313.084 1828.74 313.845 1828.18 315.167L1827.83 316.011L1827.99 315.109C1828.24 313.699 1827.47 312.304 1826.15 311.75L1825.31 311.396L1826.21 311.555C1827.62 311.804 1829.02 311.042 1829.57 309.721L1829.92 308.876Z" fill="white" fill-opacity="0.9"/>
<path d="M1150.14 347.738L1150.37 349.732C1150.71 352.851 1153.17 355.312 1156.29 355.66L1158.29 355.883L1156.29 356.105C1153.17 356.453 1150.71 358.915 1150.37 362.033L1150.14 364.027L1149.92 362.033C1149.57 358.915 1147.11 356.453 1143.99 356.105L1142 355.883L1143.99 355.66C1147.11 355.312 1149.57 352.851 1149.92 349.732L1150.14 347.738Z" fill="white" fill-opacity="0.9"/>
<path d="M344.695 172.183L343.581 172.618C341.84 173.3 340.803 175.096 341.083 176.945L341.263 178.127L340.827 177.013C340.146 175.272 338.35 174.235 336.501 174.516L335.319 174.695L336.432 174.259C338.174 173.578 339.211 171.782 338.93 169.933L338.751 168.751L339.186 169.865C339.868 171.606 341.664 172.643 343.513 172.362L344.695 172.183Z" fill="white"/>
<path d="M1203.5 149L1203.68 150.592C1203.96 153.08 1205.92 155.045 1208.41 155.322L1210 155.5L1208.41 155.678C1205.92 155.955 1203.96 157.92 1203.68 160.408L1203.5 162L1203.32 160.408C1203.04 157.92 1201.08 155.955 1198.59 155.678L1197 155.5L1198.59 155.322C1201.08 155.045 1203.04 153.08 1203.32 150.592L1203.5 149Z" fill="white"/>
<path d="M1852.21 85.9539L1851.98 87.4762C1851.62 89.8567 1852.96 92.1691 1855.2 93.045L1856.63 93.6051L1855.11 93.3749C1852.73 93.0149 1850.42 94.3517 1849.54 96.5942L1848.98 98.0284L1849.21 96.506C1849.57 94.1255 1848.23 91.8132 1845.99 90.9373L1844.56 90.3771L1846.08 90.6073C1848.46 90.9674 1850.77 89.6306 1851.65 87.388L1852.21 85.9539Z" fill="white"/>
<path opacity="0.3" d="M54.9304 271.822L55.2846 272.565C55.8384 273.726 57.1228 274.349 58.3777 274.065L59.1802 273.883L58.4375 274.237C57.2761 274.791 56.6532 276.076 56.9374 277.331L57.1192 278.133L56.765 277.39C56.2111 276.229 54.9267 275.606 53.6718 275.89L52.8693 276.072L53.612 275.718C54.7734 275.164 55.3963 273.88 55.1121 272.625L54.9304 271.822Z" fill="white" fill-opacity="0.8"/>
<path opacity="0.3" d="M14.1847 403.904L14.3968 404.349C14.7285 405.045 15.4976 405.418 16.2491 405.248L16.7297 405.139L16.2849 405.351C15.5894 405.682 15.2164 406.452 15.3866 407.203L15.4954 407.684L15.2834 407.239C14.9517 406.543 14.1826 406.17 13.4311 406.341L12.9505 406.449L13.3953 406.237C14.0908 405.906 14.4638 405.137 14.2936 404.385L14.1847 403.904Z" fill="white"/>
<path opacity="0.3" d="M956.296 342.308L956.445 343.637C956.677 345.716 958.318 347.357 960.397 347.589L961.726 347.738L960.397 347.886C958.318 348.118 956.677 349.759 956.445 351.838L956.296 353.168L956.148 351.838C955.916 349.759 954.275 348.118 952.196 347.886L950.866 347.738L952.196 347.589C954.275 347.357 955.916 345.716 956.148 343.637L956.296 342.308Z" fill="white" fill-opacity="0.8"/>
<path opacity="0.3" d="M1788.92 10.0549L1788.88 11.3921C1788.81 13.4829 1790.21 15.34 1792.23 15.8644L1793.53 16.1997L1792.19 16.1581C1790.1 16.093 1788.24 17.4848 1787.72 19.5099L1787.38 20.805L1787.42 19.4678C1787.49 17.377 1786.1 15.5199 1784.07 14.9955L1782.78 14.6602L1784.11 14.7018C1786.2 14.7669 1788.06 13.3751 1788.59 11.35L1788.92 10.0549Z" fill="white" fill-opacity="0.8"/>
<path opacity="0.3" d="M464.943 106.674L465.212 107.985C465.632 110.034 467.415 111.519 469.507 111.561L470.844 111.588L469.534 111.857C467.484 112.277 465.999 114.06 465.957 116.151L465.93 117.489L465.662 116.178C465.242 114.129 463.458 112.644 461.367 112.602L460.029 112.575L461.34 112.307C463.389 111.887 464.874 110.103 464.916 108.012L464.943 106.674Z" fill="white" fill-opacity="0.8"/>
<path d="M619.163 85.6471L619.275 86.1933C619.45 87.0475 620.194 87.6664 621.066 87.684L621.623 87.6952L621.077 87.8071C620.223 87.9822 619.604 88.7255 619.586 89.5972L619.575 90.1547L619.463 89.6085C619.288 88.7543 618.545 88.1353 617.673 88.1178L617.115 88.1066L617.662 87.9946C618.516 87.8196 619.135 87.0763 619.152 86.2046L619.163 85.6471Z" fill="white"/>
<path opacity="0.3" d="M97.2918 488.914L97.4402 490.244C97.6721 492.323 99.3132 493.964 101.392 494.196L102.722 494.344L101.392 494.492C99.3132 494.724 97.6721 496.365 97.4402 498.444L97.2918 499.774L97.1434 498.444C96.9115 496.365 95.2704 494.724 93.1915 494.492L91.8619 494.344L93.1915 494.196C95.2704 493.964 96.9115 492.323 97.1434 490.244L97.2918 488.914Z" fill="white" fill-opacity="0.8"/>
<path d="M1126.82 30.5338L1126.81 31.5193C1126.81 33.0603 1127.88 34.3974 1129.38 34.7393L1130.34 34.9579L1129.36 34.9564C1127.82 34.9542 1126.48 36.0196 1126.14 37.5223L1125.92 38.4832L1125.92 37.4977C1125.92 35.9567 1124.86 34.6196 1123.35 34.2778L1122.39 34.0592L1123.38 34.0606C1124.92 34.0628 1126.26 32.9974 1126.6 31.4948L1126.82 30.5338Z" fill="white"/>
<path opacity="0.3" d="M1084.06 113.669L1084.04 114.527C1084.01 115.869 1084.91 117.055 1086.21 117.385L1087.04 117.596L1086.18 117.573C1084.84 117.539 1083.65 118.438 1083.32 119.739L1083.11 120.571L1083.13 119.713C1083.17 118.372 1082.27 117.185 1080.97 116.855L1080.14 116.645L1081 116.667C1082.34 116.701 1083.52 115.802 1083.85 114.501L1084.06 113.669Z" fill="white"/>
<path opacity="0.3" d="M1387.87 162.475L1387.85 163.333C1387.81 164.675 1388.71 165.862 1390.01 166.191L1390.85 166.402L1389.99 166.38C1388.65 166.345 1387.46 167.245 1387.13 168.546L1386.92 169.378L1386.94 168.52C1386.98 167.178 1386.08 165.991 1384.78 165.662L1383.94 165.451L1384.8 165.473C1386.14 165.508 1387.33 164.609 1387.66 163.308L1387.87 162.475Z" fill="white"/>
<path opacity="0.3" d="M1625.87 42.4754L1625.85 43.3335C1625.81 44.6752 1626.71 45.862 1628.01 46.1914L1628.85 46.4021L1627.99 46.38C1626.65 46.3455 1625.46 47.2448 1625.13 48.5459L1624.92 49.378L1624.94 48.52C1624.98 47.1782 1624.08 45.9915 1622.78 45.662L1621.94 45.4513L1622.8 45.4734C1624.14 45.508 1625.33 44.6086 1625.66 43.3075L1625.87 42.4754Z" fill="white"/>
<path opacity="0.3" d="M1673.28 264.283L1673.1 265.608C1672.82 267.681 1674.01 269.674 1675.96 270.407L1677.22 270.877L1675.89 270.695C1673.82 270.411 1671.83 271.601 1671.09 273.56L1670.62 274.812L1670.81 273.487C1671.09 271.415 1669.9 269.422 1667.94 268.688L1666.69 268.219L1668.01 268.4C1670.09 268.684 1672.08 267.495 1672.81 265.536L1673.28 264.283Z" fill="white" fill-opacity="0.8"/>
<path opacity="0.3" d="M1859.83 411.81L1859.97 413.14C1860.21 415.219 1861.85 416.86 1863.93 417.092L1865.26 417.24L1863.93 417.388C1861.85 417.62 1860.21 419.261 1859.97 421.34L1859.83 422.67L1859.68 421.34C1859.45 419.261 1857.8 417.62 1855.73 417.388L1854.4 417.24L1855.73 417.092C1857.8 416.86 1859.45 415.219 1859.68 413.14L1859.83 411.81Z" fill="white" fill-opacity="0.8"/>
<path opacity="0.3" d="M1914.53 203.512L1914.31 204.831C1913.96 206.894 1915.09 208.923 1917.02 209.717L1918.26 210.224L1916.94 210.002C1914.88 209.654 1912.85 210.781 1912.05 212.716L1911.55 213.954L1911.77 212.635C1912.12 210.572 1910.99 208.543 1909.05 207.749L1907.82 207.242L1909.14 207.464C1911.2 207.812 1913.23 206.685 1914.02 204.75L1914.53 203.512Z" fill="white" fill-opacity="0.8"/>
<path opacity="0.3" d="M1316.84 274.978L1316.99 276.307C1317.22 278.386 1318.86 280.027 1320.94 280.259L1322.27 280.407L1320.94 280.556C1318.86 280.788 1317.22 282.429 1316.99 284.508L1316.84 285.837L1316.69 284.508C1316.46 282.429 1314.82 280.788 1312.74 280.556L1311.41 280.407L1312.74 280.259C1314.82 280.027 1316.46 278.386 1316.69 276.307L1316.84 274.978Z" fill="white" fill-opacity="0.8"/>
<path opacity="0.3" d="M1098.56 192.444L1098.71 193.773C1098.94 195.852 1100.58 197.493 1102.66 197.725L1103.99 197.873L1102.66 198.022C1100.58 198.254 1098.94 199.895 1098.71 201.974L1098.56 203.303L1098.41 201.974C1098.18 199.895 1096.54 198.254 1094.46 198.022L1093.13 197.873L1094.46 197.725C1096.54 197.493 1098.18 195.852 1098.41 193.773L1098.56 192.444Z" fill="white" fill-opacity="0.8"/>
<path opacity="0.3" d="M692.405 422.67L692.553 423.999C692.785 426.078 694.426 427.719 696.505 427.951L697.835 428.1L696.505 428.248C694.426 428.48 692.785 430.121 692.553 432.2L692.405 433.529L692.256 432.2C692.024 430.121 690.383 428.48 688.305 428.248L686.975 428.1L688.305 427.951C690.383 427.719 692.024 426.078 692.256 423.999L692.405 422.67Z" fill="white" fill-opacity="0.8"/>
<path d="M752.898 79L753.046 80.3295C753.278 82.4085 754.919 84.0495 756.998 84.2815L758.328 84.4299L756.998 84.5782C754.919 84.8102 753.278 86.4512 753.046 88.5302L752.898 89.8597L752.75 88.5302C752.518 86.4512 750.877 84.8102 748.798 84.5782L747.468 84.4299L748.798 84.2815C750.877 84.0495 752.518 82.4085 752.75 80.3295L752.898 79Z" fill="white"/>
<path opacity="0.3" d="M282.965 269.663L283.383 270.934C284.037 272.921 285.979 274.19 288.062 273.991L289.393 273.863L288.123 274.281C286.136 274.935 284.866 276.878 285.066 278.96L285.193 280.292L284.775 279.021C284.122 277.034 282.179 275.765 280.097 275.964L278.765 276.092L280.036 275.674C282.023 275.02 283.292 273.077 283.093 270.995L282.965 269.663Z" fill="white" fill-opacity="0.8"/>
<path opacity="0.3" d="M514.305 320.588L514.454 321.918C514.686 323.997 516.327 325.638 518.406 325.87L519.735 326.018L518.406 326.167C516.327 326.399 514.686 328.04 514.454 330.119L514.305 331.448L514.157 330.119C513.925 328.04 512.284 326.399 510.205 326.167L508.876 326.018L510.205 325.87C512.284 325.638 513.925 323.997 514.157 321.918L514.305 320.588Z" fill="white" fill-opacity="0.8"/>
<path opacity="0.6" d="M1501.54 117.639L1501.4 118.969C1501.18 121.049 1502.42 123.005 1504.41 123.679L1505.67 124.11L1504.34 123.969C1502.26 123.748 1500.31 124.997 1499.63 126.977L1499.2 128.244L1499.34 126.914C1499.56 124.833 1498.31 122.878 1496.33 122.204L1495.07 121.773L1496.4 121.914C1498.48 122.135 1500.43 120.885 1501.11 118.905L1501.54 117.639Z" fill="white"/>
<path opacity="0.3" d="M128.898 30L129.046 31.3295C129.278 33.4085 130.919 35.0495 132.998 35.2815L134.328 35.4299L132.998 35.5782C130.919 35.8102 129.278 37.4512 129.046 39.5302L128.898 40.8597L128.75 39.5302C128.518 37.4512 126.877 35.8102 124.798 35.5782L123.468 35.4299L124.798 35.2815C126.877 35.0495 128.518 33.4085 128.75 31.3295L128.898 30Z" fill="white" fill-opacity="0.8"/>
</g>
<defs>
<filter id="filter0_d_1_969" x="-8.08154" y="0.0549316" width="1936.34" height="509.719" filterUnits="userSpaceOnUse" color-interpolation-filters="sRGB">
<feFlood flood-opacity="0" result="BackgroundImageFix"/>
<feColorMatrix in="SourceAlpha" type="matrix" values="0 0 0 0 0 0 0 0 0 0 0 0 0 0 0 0 0 0 127 0" result="hardAlpha"/>
<feOffset/>
<feGaussianBlur stdDeviation="5"/>
<feColorMatrix type="matrix" values="0 0 0 0 1 0 0 0 0 1 0 0 0 0 1 0 0 0 0.65 0"/>
<feBlend mode="normal" in2="BackgroundImageFix" result="effect1_dropShadow_1_969"/>
<feBlend mode="normal" in="SourceGraphic" in2="effect1_dropShadow_1_969" result="shape"/>
</filter>
</defs>
</svg>
