<?xml version="1.0" encoding="utf-8"?>
<!-- Generator: Adobe Illustrator 25.2.0, SVG Export Plug-In . SVG Version: 6.00 Build 0)  -->
<!DOCTYPE svg PUBLIC "-//W3C//DTD SVG 1.1//EN" "http://www.w3.org/Graphics/SVG/1.1/DTD/svg11.dtd" [
	<!ENTITY ns_extend "http://ns.adobe.com/Extensibility/1.0/">
	<!ENTITY ns_ai "http://ns.adobe.com/AdobeIllustrator/10.0/">
	<!ENTITY ns_graphs "http://ns.adobe.com/Graphs/1.0/">
	<!ENTITY ns_vars "http://ns.adobe.com/Variables/1.0/">
	<!ENTITY ns_imrep "http://ns.adobe.com/ImageReplacement/1.0/">
	<!ENTITY ns_sfw "http://ns.adobe.com/SaveForWeb/1.0/">
	<!ENTITY ns_custom "http://ns.adobe.com/GenericCustomNamespace/1.0/">
	<!ENTITY ns_adobe_xpath "http://ns.adobe.com/XPath/1.0/">
]>
<svg version="1.1" id="Слой_1" xmlns:x="&ns_extend;" xmlns:i="&ns_ai;" xmlns:graph="&ns_graphs;"
	 xmlns="http://www.w3.org/2000/svg" xmlns:xlink="http://www.w3.org/1999/xlink" x="0px" y="0px" viewBox="0 0 1390 337.5"
	 style="enable-background:new 0 0 1390 337.5;" xml:space="preserve">
<style type="text/css">
	.st0{fill:#FFFFFF;}
</style>
<metadata>
	<sfw  xmlns="&ns_sfw;">
		<slices></slices>
		<sliceSourceBounds  bottomLeftOrigin="true" height="201.2" width="738.4" x="326.9" y="61.1"></sliceSourceBounds>
	</sfw>
</metadata>
<g>
	<path class="st0" d="M444,126.3l0,0.3c4.3,0.6,8.3,2.5,11.5,5.5c3.3,3,5.3,7.2,5.5,11.6c0.4,3.9-0.2,7.8-1.8,11.3
		c-1.5,3.2-3.8,6-6.7,8c-3,2-6.3,3.6-9.7,4.8c-3.8,1.2-7.7,2-11.7,2.3c-12.4,1.1-24.7,2.3-37.1,3.6l-8.4-80.5
		c11.5-1.2,23-2.3,34.5-3.4c13.7-1.9,33.4,1.5,34.5,18.6C455.4,116.5,451.9,122.6,444,126.3z M421.1,110.9l-6.9,0.7l0.9,9.9l7.5-0.7
		c4.5-0.4,6.5-2.4,6.2-6C428.5,111.8,425.9,110.5,421.1,110.9z M423.8,138.2l-7.1,0.7c0.4,4.4,0.6,6.6,1,10.9c3.3-0.3,5-0.5,8.3-0.8
		c1.9-0.1,3.7-0.8,5.2-2c0.6-0.5,1-1.2,1.3-1.9c0.3-0.7,0.4-1.6,0.3-2.3c0-0.9-0.3-1.7-0.9-2.4c-0.5-0.7-1.3-1.2-2.1-1.5
		C427.9,138.3,425.9,138,423.8,138.2z"/>
	<path class="st0" d="M474.2,166.5c-2.1-26.9-4.1-53.8-6.2-80.7c12.1-0.9,24.1-1.8,36.2-2.5c4.2-0.3,8.3-0.2,12.5,0.4
		c3.8,0.6,7.5,1.8,11,3.5c3.5,1.7,6.4,4.4,8.4,7.7c2.2,3.8,3.5,8.2,3.6,12.6c0.3,4.6-0.8,9.2-3.1,13.2c-2.4,4-6,7.3-10.2,9.4
		c7.6,10.5,15.2,21.1,22.7,31.6c-10.6,0.5-21.1,1.1-31.7,1.8c-5.8-9.3-11.7-18.6-17.6-27.9l-0.8,0.1c0.6,9.6,1.3,19.2,1.9,28.9
		C490.1,165.3,484.8,165.6,474.2,166.5z M496.5,104.9c0.3,5.2,0.5,7.8,0.9,13l5.5-0.4c6.5-0.4,9.6-2.9,9.3-7.3
		c-0.3-4.2-3.2-6.1-9-5.7L496.5,104.9z"/>
	<path class="st0" d="M556.7,161.4c-1.3-27-2.6-53.9-3.8-80.9c9.5-0.5,19-0.9,28.5-1.2c1,27,2,53.9,3.1,80.9
		C573.3,160.6,567.8,160.8,556.7,161.4z"/>
	<path class="st0" d="M632.5,158.8c-10.9,0.3-21.9,0.5-32.8,0.9c-0.9-27-1.8-53.9-2.6-80.9c10.5-0.3,20.9-0.6,31.4-0.9
		c5.2-0.1,10.3,0.1,15.5,0.8c4.7,0.7,9.4,2,13.8,3.8c4.1,1.7,7.9,4.2,11.2,7.2c3.2,3.2,5.8,7.1,7.3,11.4c1.9,5.1,2.9,10.6,2.8,16.1
		c0.1,6.3-1.1,12.6-3.8,18.4c-2.3,5.1-5.9,9.6-10.4,12.9c-4.5,3.3-9.5,5.8-14.8,7.4C644.3,157.7,638.4,158.7,632.5,158.8z
		 M631.1,100.9l-6.2,0.2c0.3,11.5,0.5,23,0.8,34.5l5.1-0.1c11,0.5,20.5-6.7,20-18.2c-0.2-5.1-1.9-9.2-5.5-12.2
		C641.7,102.3,637,100.8,631.1,100.9L631.1,100.9z"/>
	<path class="st0" d="M732.2,160.5c-11.8-0.1-23.6-3.9-32.4-11.9c-8.7-7.9-12.9-19.4-12.9-30.9c0-11.5,4.3-23.1,13-30.9
		s20.7-11.8,32.5-11.6c6.3,0.1,12.6,1.2,18.6,3.4c5.3,1.8,10.2,4.8,14.3,8.8c-6.8,7.5-10.1,11.2-16.8,18.7
		c-3.6-4.4-8.5-6.7-14.7-6.8c-2.3-0.1-4.7,0.4-6.8,1.2c-2.2,0.9-4.1,2.2-5.8,3.8c-1.8,1.7-3.2,3.8-4.1,6.1c-0.9,2.3-1.4,4.8-1.3,7.3
		c-0.1,5.9,1.5,10.6,4.5,14c3.1,3.4,7.8,5.2,14.1,5.3c2.2,0.1,4.5-0.2,6.5-1c0-2.5,0.1-3.7,0.1-6.2c-5.3-0.1-8-0.1-13.3-0.2
		l0.3-21.4c12.7,0.1,25.4,0.4,38.2,0.7c-0.4,14.7-0.7,29.5-1.1,44.2c-4.7,2.5-9.8,4.2-15,5.3C744.2,159.9,738.2,160.5,732.2,160.5z"
		/>
	<path class="st0" d="M778.6,159.4c0.8-27,1.6-53.9,2.4-80.9c9.5,0.3,19,0.6,28.4,1c-1.1,27-2.1,53.9-3.2,80.9
		C795.2,159.9,789.7,159.7,778.6,159.4z"/>
	<path class="st0" d="M821.5,161c1.2-27,2.4-53.9,3.6-80.9c9.4,0.4,18.7,0.9,28.1,1.4c7.2,14.1,14.3,28.2,21.3,42.4l0.5,0.1
		c0.5-13.7,0.9-27.4,1.4-41c10.7,0.7,16,1,26.7,1.8c-1.9,26.9-3.8,53.8-5.7,80.7c-9.3-0.7-18.7-1.3-28-1.9
		c-6.8-13.3-13.6-26.6-20.5-39.9l-0.5-0.1c-0.3,12.9-0.6,25.8-0.9,38.6C837.1,161.7,831.9,161.5,821.5,161z"/>
	<path class="st0" d="M953.7,172c-11.7-1-23.2-5.7-31.3-14.4s-11.3-20.3-10.5-31.8s6-22.7,15.3-29.8c9.3-7.2,21.5-10.2,33.3-9
		c6.3,0.6,12.5,2.2,18.2,4.8c5.2,2.3,9.8,5.6,13.5,9.9c-7.3,6.9-10.9,10.4-18.2,17.4c-3.2-4.7-7.9-7.3-14.1-7.9
		c-2.3-0.2-4.7,0-6.9,0.7c-2.2,0.7-4.3,1.9-6,3.4c-1.9,1.6-3.5,3.5-4.6,5.8c-1.1,2.2-1.8,4.7-1.9,7.1c-0.5,5.9,0.6,10.7,3.4,14.4
		c2.8,3.6,7.4,5.8,13.7,6.3c2.2,0.3,4.5,0.1,6.6-0.5c0.2-2.5,0.3-3.7,0.6-6.1c-5.3-0.5-8-0.7-13.2-1.2c0.8-8.5,1.1-12.8,1.9-21.3
		c12.6,1.1,25.3,2.3,37.9,3.6l-4.5,44c-4.9,2.1-10,3.5-15.3,4.2C965.7,172.4,959.7,172.5,953.7,172z"/>
</g>
<g>
	<path class="st0" d="M336.6,275.1c-3.2-26.8-6.5-53.6-9.7-80.4c19.1-2.3,38.2-4.4,57.3-6.3l2.3,22.5c-10.2,1-20.5,2.1-30.7,3.2
		l0.7,7c9.6-1.1,19.2-2.1,28.8-3c0.9,8.4,1.3,12.6,2.1,21c-9.5,1-19.1,2-28.6,3l0.8,7.5c10.8-1.2,21.6-2.3,32.3-3.4
		c1,9,1.3,13.5,2.2,22.5C375,270.8,355.8,272.9,336.6,275.1z"/>
	<path class="st0" d="M396.3,268.6c8-28,16.3-55.8,24.9-83.6c10-0.9,19.9-1.7,29.9-2.5c12.9,26,25.6,52.2,38,78.4
		c-9.9,0.7-19.8,1.4-29.8,2.1c-2.1-4.6-3.1-6.9-5.2-11.5c-10.4,0.8-15.6,1.3-25.9,2.2c-1.2,4.9-1.8,7.3-3,12.2
		C415.5,266.7,405.9,267.6,396.3,268.6z M446.3,231.2c-3.3-7.8-5-11.6-8.3-19.4c-2,8.2-3.1,12.3-5.1,20.5
		C438.3,231.9,441,231.7,446.3,231.2z"/>
	<path class="st0" d="M521.6,261.2c-6.4,0.4-12.8-0.4-19-2.2c-5.8-1.6-11.3-4.3-16.1-7.9c6.2-7.7,9.3-11.5,15.6-19.1
		c2.4,2.2,5.2,4,8.2,5.2c3.1,1.3,6.5,1.9,9.9,1.7c4.1-0.2,6.1-1.6,5.9-4.1c-0.1-1.4-1-2.6-2.9-3.4c-4-1.5-8-2.7-12.1-3.7
		c-6.7-1.7-12.1-4.3-16.1-7.6c-4-3.3-6.3-8.2-6.7-14.7c-0.4-4.4,0.4-8.9,2.3-12.9c1.7-3.7,4.4-6.9,7.8-9.3c3.3-2.3,7-4.2,10.9-5.4
		c4-1.3,8.2-2,12.4-2.2c5.8-0.3,11.6,0.5,17.1,2.3c5.6,1.7,10.8,4.5,15.3,8.1c-6.7,7.2-10,10.8-16.6,18c-2-2.1-4.3-3.7-7-4.8
		c-2.4-1.1-5-1.6-7.7-1.5c-4.6,0.2-6.8,1.6-6.6,4c0,0.5,0.2,1.1,0.5,1.5c0.3,0.4,0.8,0.8,1.3,1c2.2,0.8,4.4,1.5,6.7,2.1
		c2.3,0.6,4.1,1.1,5.5,1.4c1.3,0.3,3.2,0.9,5.4,1.7c1.9,0.6,3.8,1.4,5.5,2.4c1.6,0.9,3.2,2,4.7,3.1c1.6,1.1,3,2.5,4.1,4.1
		c1.1,1.6,2,3.3,2.6,5.1c0.8,2.1,1.2,4.2,1.3,6.4c0.4,9.1-2.6,16.4-9.1,21.8C538.3,257.8,530.1,260.9,521.6,261.2z"/>
	<path class="st0" d="M603.6,197.5c0.5,19.3,1,38.6,1.5,58c-11,0.3-16.5,0.5-27.4,0.9l-2.1-57.9c-8.2,0.3-12.3,0.5-20.4,0.8
		c-0.4-9.2-0.6-13.8-1-23c23.1-0.9,46.3-1.7,69.4-2.2c0.2,9.2,0.3,13.8,0.4,23C615.9,197.2,611.8,197.3,603.6,197.5z"/>
	<path class="st0" d="M691.6,254.5l-5.6-5.8c-5.9,4.9-13.6,7.4-23.1,7.5c-3.9,0-7.8-0.4-11.7-1.3c-3.6-0.9-7.1-2.3-10.3-4.2
		c-3.2-1.9-5.8-4.5-7.7-7.7c-2-3.5-3-7.4-3-11.4c-0.2-4.7,1.3-9.3,4.3-13.1c3.1-3.9,7.1-6.9,11.6-8.8c-5.4-4.5-8.2-10-8.3-16.5
		c-0.1-3.5,0.8-7,2.6-10c1.7-2.9,4.2-5.3,7.1-6.9c3-1.7,6.2-2.9,9.6-3.8c3.5-0.8,7-1.3,10.6-1.3c7.9,0,14.7,1.8,20.5,5.5
		c5.7,3.7,8.6,9.2,8.5,16.5c0.1,4.3-1.4,8.4-4.3,11.6c-3.4,3.6-7.4,6.6-11.9,8.8l5.7,5.3c2.6-3.6,3.9-5.4,6.5-9
		c9.7,0,19.5,0.1,29.2,0.3c-6.7,7.8-13.4,15.6-20.1,23.5c7.4,7,14.7,14.1,22,21.2C713,254.6,702.3,254.5,691.6,254.5z M660.8,223.4
		c-3,1.2-4.5,3.3-4.5,6.3c0,0.9,0.2,1.8,0.6,2.7c0.4,0.8,1.1,1.5,1.8,2c1.6,1.1,3.5,1.6,5.4,1.6c3.2,0,5.5-0.8,7-2.4
		C667,229.4,665,227.4,660.8,223.4z M671.7,190.3c-0.5-0.5-1.1-0.9-1.8-1.2c-0.7-0.3-1.4-0.4-2.1-0.3c-0.7,0-1.5,0.1-2.1,0.4
		c-0.7,0.3-1.3,0.7-1.8,1.2c-0.5,0.5-0.8,1.1-1.1,1.7c-0.2,0.6-0.4,1.3-0.3,2c0,2.5,1.5,4.8,4.4,6.8c4.1-1.6,6.2-3.9,6.2-6.9
		C673.2,192.6,672.7,191.3,671.7,190.3L671.7,190.3z"/>
	<path class="st0" d="M786.5,210.7c-4.6,15.1-9.1,30.2-13.5,45.3c-11.1-0.4-16.6-0.5-27.7-0.8c-6.9-27.2-13.9-54.3-21.1-81.4
		c10,0.1,19.9,0.3,29.9,0.6c2.6,15.2,5.2,30.5,7.7,45.7l0.5,0c3.6-15.1,7.3-30.1,11-45.2c9.9,0.3,19.7,0.7,29.6,1.1
		c2.9,15.3,5.7,30.6,8.5,45.9l0.5,0c3.7-15,7.4-30,11.2-45c9.7,0.5,19.3,1,29,1.5c-9.3,26.5-18.5,53-27.4,79.6
		c-11.1-0.5-16.6-0.8-27.7-1.2c-3.2-15.4-6.5-30.8-9.9-46.1L786.5,210.7z"/>
	<path class="st0" d="M854.8,259.7c1.6-26.9,3.3-53.9,4.9-80.8c19.3,1.2,38.5,2.6,57.7,4.1c-0.7,9-1.1,13.5-1.8,22.6
		c-10.3-0.8-20.6-1.6-31-2.3c-0.2,2.8-0.3,4.2-0.5,7c9.7,0.7,19.3,1.4,29,2.2c-0.7,8.4-1,12.6-1.7,21.1c-9.6-0.8-19.2-1.5-28.8-2.1
		l-0.5,7.5c10.9,0.8,21.7,1.6,32.6,2.5c-0.7,9-1.1,13.5-1.8,22.6C893.6,262.3,874.2,261,854.8,259.7z"/>
	<path class="st0" d="M950.9,269.5c-6.4-0.6-12.7-2.3-18.5-5c-5.5-2.5-10.5-5.9-14.8-10.2c7.3-6.7,11-10,18.4-16.6
		c2,2.5,4.6,4.7,7.4,6.3c2.9,1.7,6.2,2.8,9.5,3.2c4.1,0.4,6.2-0.7,6.5-3.2c0.1-1.4-0.6-2.7-2.3-3.8c-3.7-2.1-7.5-3.9-11.5-5.4
		c-6.4-2.7-11.4-6-14.9-9.9c-3.5-3.9-5-9.1-4.5-15.5c0.3-4.4,1.7-8.7,4.2-12.4c2.3-3.4,5.4-6.2,9.1-8c3.7-1.8,7.6-3.1,11.7-3.7
		c4.2-0.7,8.4-0.8,12.7-0.3c5.8,0.6,11.5,2.2,16.7,4.9c5.3,2.5,10,6,14,10.3c-7.7,6.1-11.6,9.2-19.2,15.4c-1.6-2.3-3.8-4.3-6.2-5.7
		c-2.2-1.4-4.8-2.3-7.4-2.6c-4.6-0.4-7,0.6-7.2,3c-0.1,0.5,0,1.1,0.3,1.6c0.3,0.5,0.6,0.9,1.1,1.1c2.1,1.2,4.2,2.2,6.4,3.1
		c2.2,1,3.9,1.7,5.3,2.3c1.3,0.5,3,1.4,5.1,2.5c1.8,0.9,3.5,2,5.1,3.2c1.5,1.2,2.9,2.4,4.2,3.8c1.4,1.4,2.6,2.9,3.5,4.7
		c0.8,1.7,1.5,3.5,1.9,5.4c0.4,2.1,0.6,4.4,0.3,6.5c-1,9.1-5.1,15.8-12.3,20.2C968.1,268.7,959.5,270.5,950.9,269.5z"/>
	<path class="st0" d="M1041.9,218.8c-2.4,19.2-4.8,38.4-7.2,57.6c-11-1.4-16.4-2-27.4-3.3c2.2-19.2,4.4-38.4,6.6-57.6
		c-8.1-0.9-12.2-1.4-20.4-2.3c1-9.2,1.5-13.7,2.4-22.9c23.2,2.5,46.3,5.3,69.4,8.3c-1.2,9.1-1.8,13.7-3,22.8
		C1054.2,220.4,1050.1,219.8,1041.9,218.8z"/>
</g>
</svg>
