<svg width="1390" height="169" viewBox="0 0 1390 169" fill="none" xmlns="http://www.w3.org/2000/svg">
<g filter="url(#filter0_d_1_1013)">
<path d="M66.05 106.954L66.13 107.294C70.4833 107.312 74.7255 108.671 78.28 111.184C81.9342 113.723 84.4474 117.593 85.28 121.964C86.186 125.743 86.0929 129.692 85.01 133.424C83.9897 136.803 82.0551 139.835 79.42 142.184C76.7215 144.603 73.6908 146.623 70.42 148.184C66.8221 149.874 63.0448 151.152 59.16 151.994C47.0467 154.734 34.96 157.554 22.9 160.454L4 81.744C15.26 79.0773 26.5233 76.444 37.79 73.844C51.13 70.114 71.07 70.974 74.44 87.724C76.02 95.724 73.36 102.224 66.05 106.954ZM41.3 94.694L34.54 96.254L36.77 105.954L44.13 104.264C48.5 103.264 50.3 101.034 49.51 97.534C48.79 94.564 46.06 93.604 41.3 94.694ZM47.63 121.394L40.63 122.994C41.63 127.274 42.11 129.414 43.09 133.694C46.33 132.944 47.94 132.574 51.18 131.844C53.0588 131.517 54.7814 130.591 56.09 129.204C56.6096 128.6 56.9726 127.877 57.147 127.099C57.3214 126.321 57.3018 125.512 57.09 124.744C56.9353 123.885 56.5189 123.094 55.8978 122.48C55.2767 121.866 54.4812 121.459 53.62 121.314C51.6422 120.895 49.5959 120.923 47.63 121.394Z" fill="white"/>
<path d="M101.24 142.803C95.6734 116.397 90.1067 89.9932 84.54 63.5932C96.3867 61.0932 108.247 58.6699 120.12 56.3232C124.204 55.4702 128.369 55.0711 132.54 55.1332C136.399 55.2231 140.223 55.8974 143.88 57.1332C147.549 58.385 150.784 60.6614 153.2 63.6932C155.917 67.1899 157.703 71.3187 158.39 75.6932C159.306 80.235 158.828 84.9474 157.02 89.2132C155.127 93.5351 152.04 97.2266 148.12 99.8532C157.06 109.267 165.937 118.733 174.75 128.253C164.357 130.153 153.973 132.12 143.6 134.153C136.58 125.693 129.533 117.26 122.46 108.853L121.65 109.013C123.55 118.467 125.453 127.92 127.36 137.373C116.88 139.493 111.66 140.563 101.24 142.803ZM115.31 78.8032C116.31 83.9132 116.85 86.4732 117.88 91.5832L123.3 90.4932C129.68 89.2266 132.44 86.3899 131.58 81.9832C130.78 77.8732 127.58 76.3632 121.91 77.4832L115.31 78.8032Z" fill="white"/>
<path d="M182.35 126.883C177.543 100.33 172.74 73.7765 167.94 47.2232C177.273 45.5232 186.643 43.8765 196.05 42.2832C200.59 68.8699 205.137 95.4665 209.69 122.073C198.74 123.943 193.28 124.903 182.35 126.883Z" fill="white"/>
<path d="M257.15 114.363C246.337 116.05 235.533 117.777 224.74 119.543C220.333 92.9232 215.927 66.2999 211.52 39.6732C221.84 37.9599 232.173 36.2932 242.52 34.6732C247.626 33.86 252.79 33.462 257.96 33.4832C262.744 33.5271 267.501 34.1995 272.11 35.4832C276.432 36.641 280.513 38.5611 284.16 41.1532C287.802 43.9085 290.793 47.4319 292.92 51.4732C295.489 56.3118 297.14 61.5839 297.79 67.0232C298.763 73.2758 298.315 79.6674 296.48 85.7232C294.858 91.1114 291.892 95.9982 287.86 99.9232C283.848 103.766 279.225 106.915 274.18 109.243C268.777 111.755 263.042 113.479 257.15 114.363ZM248.15 57.2232L241.98 58.2232C243.76 69.5966 245.533 80.9699 247.3 92.3432L252.37 91.5532C263.37 90.5532 271.79 82.2432 269.82 70.8932C268.95 65.8932 266.74 61.9732 262.82 59.5532C258.9 57.1332 254.03 56.3132 248.12 57.2232H248.15Z" fill="white"/>
<path d="M356.26 102.955C344.57 104.405 332.39 102.175 322.59 95.3845C312.95 88.7145 307.26 77.8745 305.72 66.4745C304.18 55.0745 306.93 43.0445 314.57 34.1045C322.21 25.1645 333.57 19.7045 345.28 18.3645C351.577 17.6077 357.957 17.9221 364.15 19.2945C369.689 20.4123 374.911 22.745 379.44 26.1245C373.71 34.4145 370.88 38.5745 365.24 46.8945C361.093 42.9945 355.936 41.4045 349.77 42.1245C347.45 42.3794 345.206 43.1029 343.174 44.2512C341.142 45.3995 339.365 46.9486 337.95 48.8045C336.398 50.7545 335.271 53.0071 334.641 55.418C334.011 57.8288 333.891 60.3447 334.29 62.8045C335.02 68.7045 337.15 73.1445 340.64 76.1345C344.13 79.1245 349.04 80.2345 355.35 79.4845C357.577 79.3342 359.743 78.6885 361.69 77.5945C361.4 75.1445 361.26 73.9145 360.98 71.4645C355.7 72.0745 353.06 72.3845 347.78 73.0245L345.23 51.8045C357.856 50.2845 370.496 48.8479 383.15 47.4945C384.723 62.1612 386.29 76.8279 387.85 91.4945C383.49 94.5441 378.733 96.9802 373.71 98.7345C368.076 100.811 362.22 102.227 356.26 102.955Z" fill="white"/>
<path d="M402.13 95.8037C399.39 68.9637 396.647 42.1203 393.9 15.2737C403.34 14.307 412.783 13.387 422.23 12.5137C424.723 39.3803 427.21 66.2503 429.69 93.1237C418.66 94.1637 413.15 94.6937 402.13 95.8037Z" fill="white"/>
<path d="M444.85 91.8036C442.51 64.9236 440.177 38.0403 437.85 11.1536C447.183 10.3403 456.517 9.5736 465.85 8.8536C474.85 21.8536 483.757 34.9169 492.57 48.0436H493.04C491.707 34.4236 490.373 20.8003 489.04 7.1736C499.73 6.4336 505.04 6.08359 515.77 5.43359C517.397 32.3736 519.03 59.3069 520.67 86.2336C511.337 86.7936 502.003 87.4036 492.67 88.0636C484.217 75.7303 475.7 63.4469 467.12 51.2136H466.65C468.05 64.0269 469.44 76.8369 470.82 89.6436C460.43 90.4436 455.24 90.8736 444.85 91.8036Z" fill="white"/>
<path d="M577.35 85.3748C565.59 85.9148 553.64 82.7448 544.41 75.2348C535.18 67.7248 530.54 56.5748 529.85 45.1048C529.16 33.6348 532.85 21.8448 541.14 13.5148C549.43 5.18481 561.14 0.614814 572.92 0.194815C579.246 -0.0786009 585.572 0.722764 591.63 2.56482C597.059 4.11706 602.078 6.84873 606.33 10.5648C599.99 18.3948 596.85 22.3248 590.6 30.1848C586.773 25.9715 581.773 23.9715 575.6 24.1848C573.268 24.2674 570.976 24.8232 568.865 25.8185C566.754 26.8139 564.868 28.2279 563.32 29.9748C561.62 31.7938 560.316 33.9468 559.494 36.2968C558.671 38.6468 558.346 41.1424 558.54 43.6248C558.82 49.5648 560.587 54.1582 563.84 57.4048C567.093 60.6515 571.89 62.1448 578.23 61.8848C580.456 61.8956 582.658 61.4176 584.68 60.4848C584.59 58.0148 584.54 56.7848 584.45 54.3148C579.14 54.5148 576.45 54.6248 571.19 54.8448C570.82 46.3048 570.64 42.0348 570.28 33.4848C582.947 32.9448 595.64 32.4881 608.36 32.1148L609.67 76.3448C605.093 79.0478 600.167 81.1103 595.03 82.4748C589.27 84.1262 583.336 85.0994 577.35 85.3748Z" fill="white"/>
<path d="M652.37 81.2345C651.97 54.2545 651.574 27.2745 651.18 0.294544C670.414 0.0545443 689.644 -0.0387878 708.87 0.0145456L708.76 22.6545C698.46 22.5945 688.153 22.5945 677.84 22.6545V29.6545C687.5 29.5945 697.167 29.5945 706.84 29.6545C706.84 38.1145 706.84 42.3445 706.76 50.8045C697.173 50.7645 687.584 50.7645 677.99 50.8045V58.3545C688.83 58.3145 699.67 58.3145 710.51 58.3545C710.51 67.4045 710.43 71.9346 710.38 80.9946C691.06 80.9146 671.724 80.9945 652.37 81.2345Z" fill="white"/>
<path d="M712.4 80.9838C723.34 54.0238 734.523 27.1705 745.95 0.423828C755.95 0.590495 765.95 0.813826 775.95 1.09383C786.05 28.3338 795.903 55.6672 805.51 83.0938C795.57 82.7072 785.627 82.3738 775.68 82.0938C774.11 77.2838 773.32 74.8838 771.74 70.0938C761.33 69.8138 756.12 69.7038 745.74 69.5138C744.03 74.2438 743.19 76.6138 741.5 81.3338C731.78 81.1538 722.08 81.0372 712.4 80.9838ZM766.09 49.1038C763.63 41.0438 762.39 37.0038 759.89 28.9438C756.99 36.8838 755.55 40.8638 752.69 48.8038C758.05 48.9138 760.73 48.9738 766.09 49.1038Z" fill="white"/>
<path d="M837.84 86.8037C831.422 86.4916 825.106 85.0741 819.17 82.6137C813.569 80.4077 808.43 77.1719 804.02 73.0737C811.02 66.0737 814.5 62.6337 821.56 55.7137C823.69 58.1984 826.289 60.2376 829.21 61.7137C832.177 63.3315 835.466 64.2707 838.84 64.4637C842.93 64.6737 845.05 63.5237 845.18 61.0137C845.25 59.5637 844.42 58.3437 842.69 57.3337C838.915 55.4483 835.024 53.805 831.04 52.4137C824.54 49.9737 819.46 46.887 815.8 43.1537C812.14 39.4203 810.43 34.3037 810.67 27.8037C810.758 23.3554 812.009 19.0078 814.3 15.1937C816.419 11.6902 819.414 8.79876 822.99 6.80368C826.553 4.82253 830.397 3.39614 834.39 2.57367C838.523 1.72592 842.747 1.41335 846.96 1.64367C852.767 1.98711 858.463 3.38314 863.77 5.76368C869.134 8.06915 874.021 11.3554 878.18 15.4537C870.77 21.9037 867.09 25.1437 859.76 31.6537C858.035 29.3766 855.825 27.5116 853.29 26.1937C850.994 24.8947 848.44 24.1164 845.81 23.9137C841.26 23.6737 838.93 24.7837 838.81 27.2237C838.773 27.7662 838.898 28.3075 839.168 28.7792C839.439 29.2508 839.843 29.6317 840.33 29.8737C842.417 30.9353 844.568 31.8671 846.77 32.6637C848.99 33.5237 850.77 34.2237 852.06 34.6637C853.35 35.1037 855.11 35.9237 857.28 36.9537C859.107 37.7987 860.866 38.785 862.54 39.9037C864.074 40.9992 865.534 42.1952 866.91 43.4837C868.352 44.7708 869.584 46.2757 870.56 47.9437C871.479 49.6239 872.178 51.4153 872.64 53.2737C873.178 55.3992 873.377 57.5961 873.23 59.7837C872.663 68.917 868.883 75.8137 861.89 80.4737C854.792 85.1819 846.336 87.4077 837.84 86.8037Z" fill="white"/>
<path d="M926.05 32.1032C924.523 51.3632 922.997 70.6265 921.47 89.8932C910.53 89.0232 905.06 88.6132 894.11 87.8932L898.11 30.0632C889.94 29.5032 885.86 29.2332 877.69 28.7232C878.26 19.5432 878.55 14.9532 879.12 5.7832C902.233 7.27654 925.327 8.9932 948.4 10.9332C947.61 20.0932 947.22 24.6732 946.4 33.8232C938.29 33.0832 934.21 32.7432 926.05 32.1032Z" fill="white"/>
<path d="M1007.6 98.0045L1002.6 91.6045C996.24 95.9045 988.327 97.5712 978.86 96.6045C974.952 96.2366 971.105 95.3799 967.41 94.0545C963.898 92.7992 960.587 91.0408 957.58 88.8345C954.607 86.6446 952.251 83.7234 950.74 80.3545C949.116 76.6822 948.488 72.6467 948.92 68.6545C949.248 63.9455 951.236 59.5055 954.53 56.1245C958.003 52.6129 962.301 50.0275 967.03 48.6045C962.09 43.5445 959.89 37.8045 960.48 31.3445C960.737 27.846 961.99 24.494 964.09 21.6845C966.118 19.0017 968.814 16.8983 971.91 15.5845C975.074 14.2275 978.408 13.309 981.82 12.8545C985.346 12.3938 988.913 12.3435 992.45 12.7045C1000.32 13.5045 1006.91 16.0345 1012.22 20.2945C1017.53 24.5545 1019.78 30.3212 1018.95 37.5945C1018.59 41.8443 1016.63 45.7994 1013.47 48.6645C1009.69 51.8825 1005.39 54.4354 1000.75 56.2145L1005.89 62.0445C1008.83 58.7245 1010.3 57.0445 1013.26 53.7645C1022.93 54.8178 1032.6 55.9278 1042.26 57.0945C1034.74 64.1145 1027.26 71.1845 1019.82 78.3045C1026.42 86.0578 1032.97 93.8445 1039.48 101.664C1028.85 100.384 1018.23 99.1645 1007.6 98.0045ZM980.26 63.8045C977.127 64.6445 975.413 66.5812 975.12 69.6145C974.988 70.5276 975.095 71.4595 975.432 72.3185C975.768 73.1776 976.323 73.9344 977.04 74.5145C978.527 75.7311 980.346 76.4701 982.26 76.6345C985.42 76.9545 987.81 76.3945 989.43 74.9545C985.78 70.4645 983.94 68.2345 980.26 63.8045ZM994.6 32.0345C994.156 31.48 993.599 31.0265 992.967 30.704C992.334 30.3816 991.64 30.1977 990.93 30.1645C990.207 30.0599 989.469 30.1072 988.765 30.3035C988.061 30.4998 987.405 30.8407 986.84 31.3045C986.315 31.7453 985.883 32.2862 985.568 32.8956C985.254 33.5051 985.065 34.171 985.01 34.8545C984.76 37.3645 986.01 39.7745 988.66 42.1145C992.953 40.9412 995.254 38.8778 995.56 35.9245C995.752 34.5464 995.408 33.1471 994.6 32.0145V32.0345Z" fill="white"/>
<path d="M1106.54 64.3648C1100.4 78.8848 1094.32 93.4282 1088.31 107.995C1077.31 106.475 1071.83 105.745 1060.84 104.335C1056.84 76.5948 1052.7 48.8882 1048.41 21.2148C1058.31 22.4015 1068.2 23.6448 1078.09 24.9448C1079.09 40.3648 1080.06 55.7915 1080.99 71.2248L1081.46 71.2848C1086.65 56.6782 1091.88 42.0815 1097.15 27.4948C1106.92 28.8282 1116.68 30.2182 1126.43 31.6648C1127.69 47.1848 1128.91 62.7048 1130.08 78.2248L1130.54 78.2948C1135.79 63.7415 1141.08 49.2048 1146.4 34.6848C1155.95 36.1515 1165.49 37.6748 1175.03 39.2548C1162.99 64.5882 1151.11 90.0082 1139.4 115.515C1128.4 113.805 1122.95 112.975 1111.98 111.365C1110.38 95.7115 1108.71 80.0682 1106.98 64.4348L1106.54 64.3648Z" fill="white"/>
<path d="M1169.36 120.373C1173.81 93.7665 1178.26 67.1532 1182.72 40.5332C1201.75 43.7599 1220.75 47.1332 1239.72 50.6532C1238.05 59.5532 1237.22 64.0032 1235.55 72.9032C1225.38 70.9965 1215.2 69.1432 1205.01 67.3432C1204.52 70.0932 1204.28 71.4632 1203.8 74.2132C1213.34 75.8932 1222.88 77.6265 1232.41 79.4132C1230.86 87.7232 1230.08 91.8832 1228.53 100.203C1219.07 98.4299 1209.6 96.7099 1200.12 95.0432L1198.81 102.473C1209.52 104.387 1220.23 106.34 1230.93 108.333C1229.25 117.233 1228.41 121.673 1226.74 130.573C1207.64 127.027 1188.51 123.627 1169.36 120.373Z" fill="white"/>
<path d="M1263.91 140.155C1257.58 138.883 1251.52 136.536 1245.99 133.215C1240.76 130.193 1236.14 126.226 1232.36 121.515C1240.36 115.665 1244.36 112.765 1252.36 106.975C1254.12 109.725 1256.4 112.104 1259.07 113.975C1261.78 116.02 1264.91 117.441 1268.23 118.135C1272.23 118.955 1274.5 118.135 1275.04 115.675C1275.33 114.255 1274.68 112.921 1273.11 111.675C1269.65 109.233 1266.03 107.025 1262.27 105.065C1256.18 101.671 1251.6 97.8581 1248.51 93.6248C1245.42 89.3914 1244.49 84.0881 1245.7 77.7148C1246.44 73.3246 1248.33 69.2089 1251.18 65.7847C1253.81 62.634 1257.21 60.2215 1261.05 58.7847C1264.9 57.356 1268.95 56.5231 1273.05 56.3147C1277.29 56.1001 1281.53 56.4363 1285.68 57.3147C1291.4 58.516 1296.85 60.7491 1301.77 63.9048C1306.75 66.9864 1311.12 70.9673 1314.65 75.6448C1306.33 80.9148 1302.18 83.5647 1293.93 88.8947C1292.55 86.3883 1290.63 84.2168 1288.32 82.5347C1286.23 80.909 1283.81 79.7559 1281.23 79.1548C1276.74 78.2481 1274.25 78.9914 1273.78 81.3848C1273.66 81.9163 1273.71 82.4705 1273.9 82.9776C1274.1 83.4847 1274.44 83.922 1274.89 84.2347C1276.81 85.5965 1278.82 86.8388 1280.89 87.9547C1282.96 89.1447 1284.62 90.1047 1285.89 90.7847C1287.16 91.4647 1288.73 92.4747 1290.74 93.7847C1292.42 94.8855 1294.01 96.1194 1295.5 97.4748C1296.86 98.7835 1298.13 100.183 1299.3 101.665C1300.56 103.158 1301.58 104.847 1302.3 106.665C1302.96 108.466 1303.39 110.345 1303.57 112.255C1303.79 114.438 1303.67 116.643 1303.19 118.785C1301.27 127.725 1296.49 133.975 1288.84 137.535C1281.05 141.142 1272.28 142.064 1263.91 140.155Z" fill="white"/>
<path d="M1359.71 99.3246C1355.33 118.145 1350.94 136.971 1346.54 155.805C1335.78 153.305 1330.4 152.075 1319.63 149.675C1323.83 130.815 1328.03 111.955 1332.22 93.0946C1324.22 91.3046 1320.22 90.4246 1312.13 88.6946C1314.06 79.6946 1315.03 75.2146 1316.96 66.2246C1339.72 71.1713 1362.43 76.3413 1385.08 81.7346C1382.93 90.6746 1381.86 95.1446 1379.71 104.075C1371.74 102.135 1367.73 101.185 1359.71 99.3246Z" fill="white"/>
</g>
<defs>
<filter id="filter0_d_1_1013" x="0" y="0" width="1389.08" height="168.454" filterUnits="userSpaceOnUse" color-interpolation-filters="sRGB">
<feFlood flood-opacity="0" result="BackgroundImageFix"/>
<feColorMatrix in="SourceAlpha" type="matrix" values="0 0 0 0 0 0 0 0 0 0 0 0 0 0 0 0 0 0 127 0" result="hardAlpha"/>
<feOffset dy="4"/>
<feGaussianBlur stdDeviation="2"/>
<feComposite in2="hardAlpha" operator="out"/>
<feColorMatrix type="matrix" values="0 0 0 0 0 0 0 0 0 0 0 0 0 0 0 0 0 0 0.25 0"/>
<feBlend mode="normal" in2="BackgroundImageFix" result="effect1_dropShadow_1_1013"/>
<feBlend mode="normal" in="SourceGraphic" in2="effect1_dropShadow_1_1013" result="shape"/>
</filter>
</defs>
</svg>
